<?xml version="1.0" encoding="UTF-8" standalone="no"?>
<!DOCTYPE svg PUBLIC "-//W3C//DTD SVG 1.1//EN" "http://www.w3.org/Graphics/SVG/1.1/DTD/svg11.dtd">
<svg width="100%" height="100%" viewBox="0 0 360 160" version="1.1" xmlns="http://www.w3.org/2000/svg" xmlns:xlink="http://www.w3.org/1999/xlink" xml:space="preserve" fill="#ffffff" style="fill-rule:evenodd;clip-rule:evenodd;stroke-linejoin:round;stroke-miterlimit:2;">
    <g transform="matrix(1,0,0,1,-108.01,-50.0955)">
        <path d="M111,197.6L206,86L212.9,86L223.3,160C235.7,145.6 250.1,131.5 266.4,118.4C330.8,66.4 417.7,51.8 465.4,52.1C417.5,62.5 374.6,78.3 336.5,104.9C298.1,131.7 270.1,162.9 254.9,207.3L197.2,207.4L191,207.4L181.4,131.1L114.6,208.7C113.2,205.3 112,201.3 111,197.6" style="fill-rule:nonzero;"/>
        <path d="M314.9,207.8L314.9,150.9L346.5,150.9L346.5,157.2L327.5,157.2L327.5,176.2L340.2,176.2L340.2,182.5L327.5,182.5L327.5,201.5L346.5,201.5L346.5,207.8L314.9,207.8Z" style="fill-rule:nonzero;"/>
        <path d="M403.2,163.5L396.8,163.5C396.2,159.2 394.2,157 390.7,157C388.4,157 386.7,157.5 385.6,158.6C384.5,159.7 383.9,161.3 383.9,163.5C383.9,165.1 384.5,166.6 385.8,168L399.5,183.3C402,186.1 403.3,189.2 403.3,192.4L403.3,195.7C403.3,199.2 402,202.2 399.5,204.8C397,207.4 393.9,208.6 390.4,208.6L383.9,208.6C379.6,208.6 376.4,207.5 374.2,205.4C372.1,203.2 371,200 371,195.7L377.5,195.7L377.5,196.7C377.5,198.5 378.2,199.8 379.5,200.7C380.9,201.6 382.4,202.1 384,202.1C386.3,202.1 387.9,201.6 388.9,200.4C389.9,199.3 390.4,197.7 390.4,195.6C390.4,194 389.8,192.4 388.5,191L374.8,175.7C372.3,172.9 371,169.9 371,166.6L371,163.3C371,159.8 372.3,156.8 374.8,154.2C377.3,151.7 380.4,150.4 383.9,150.4L390.4,150.4C398.4,150.6 402.7,154.9 403.2,163.5" style="fill-rule:nonzero;"/>
        <path d="M460.3,163.5L453.9,163.5C453.3,159.2 451.3,157 447.8,157C445.5,157 443.8,157.5 442.7,158.6C441.6,159.7 441,161.3 441,163.5C441,165.1 441.6,166.6 442.9,168L456.6,183.3C459.1,186.1 460.4,189.2 460.4,192.4L460.4,195.7C460.4,199.2 459.1,202.2 456.6,204.8C454.1,207.4 451,208.6 447.5,208.6L441,208.6C436.7,208.6 433.5,207.5 431.3,205.4C429.2,203.2 428.1,200 428.1,195.7L434.6,195.7L434.6,196.7C434.6,198.5 435.3,199.8 436.6,200.7C438,201.6 439.4,202.1 441.1,202.1C443.4,202.1 445,201.6 446,200.4C447,199.3 447.5,197.7 447.5,195.6C447.5,194 446.9,192.4 445.6,191L431.9,175.7C429.4,172.9 428.1,169.9 428.1,166.6L428.1,163.3C428.1,159.8 429.4,156.8 431.9,154.2C434.4,151.7 437.5,150.4 441,150.4L447.5,150.4C455.5,150.6 459.8,154.9 460.3,163.5" style="fill-rule:nonzero;"/>
    </g>
</svg>
